<?xml version="1.0" standalone="no"?>
<!DOCTYPE svg PUBLIC "-//W3C//DTD SVG 20010904//EN"
 "http://www.w3.org/TR/2001/REC-SVG-20010904/DTD/svg10.dtd">
<svg version="1.0" xmlns="http://www.w3.org/2000/svg"
 width="500.000000pt" height="500.000000pt" viewBox="0 0 500.000000 500.000000"
 preserveAspectRatio="xMidYMid meet">
<metadata>
Created by potrace 1.14, written by Peter Selinger 2001-2017
</metadata>
<g transform="translate(0.000000,500.000000) scale(0.100000,-0.100000)"
fill="#000000" stroke="none">
<path d="M597 4842 c-9 -2 -17 -9 -17 -15 -5 -142 1 -4641 5 -4646 4 -3 393
-6 866 -6 l859 0 2 1494 3 1494 270 0 c149 0 292 -3 319 -7 181 -25 303 -149
308 -314 4 -161 -94 -286 -262 -333 -29 -8 -128 -13 -275 -14 -126 -2 -233 -3
-238 -4 -4 -1 -6 -364 -5 -808 l3 -808 260 1 c236 0 409 7 475 18 14 3 52 7
85 11 32 4 62 8 65 10 3 2 22 6 44 9 21 4 82 17 136 31 574 145 995 473 1241
965 84 168 135 330 174 548 26 147 26 467 0 615 -3 15 -7 37 -9 50 -2 12 -7
40 -11 62 -27 151 -91 340 -175 510 -108 220 -220 378 -389 546 -88 88 -259
223 -353 279 -29 17 -60 35 -68 40 -37 24 -193 94 -289 130 -100 38 -297 91
-386 105 -126 19 -185 26 -263 31 -87 7 -2344 12 -2375 6z"/>
</g>
</svg>
